<?xml version="1.0" standalone="no"?>
<!DOCTYPE svg PUBLIC "-//W3C//DTD SVG 20010904//EN"
 "http://www.w3.org/TR/2001/REC-SVG-20010904/DTD/svg10.dtd">
<svg version="1.0" xmlns="http://www.w3.org/2000/svg"
 width="924.000000pt" height="925.000000pt" viewBox="0 0 924.000000 925.000000"
 preserveAspectRatio="xMidYMid meet">

<g transform="translate(0.000000,925.000000) scale(0.100000,-0.100000)"
fill="#000000" stroke="none">
<path d="M2830 9044 c-456 -39 -803 -133 -1167 -318 -292 -148 -550 -339 -691
-509 -245 -299 -389 -672 -433 -1122 -15 -150 -6 -491 16 -635 93 -611 366
-1206 796 -1735 139 -171 190 -226 589 -640 365 -378 426 -444 522 -562 124
-152 209 -303 262 -463 79 -240 94 -395 106 -1100 10 -643 16 -790 36 -955 19
-162 38 -235 84 -332 84 -173 222 -254 494 -292 223 -31 1008 -37 1266 -10
148 16 232 61 313 167 92 120 154 247 282 582 76 196 121 292 160 338 14 17
56 46 93 64 107 53 219 43 278 -24 60 -68 89 -148 162 -455 33 -136 76 -288
95 -336 131 -324 349 -419 1002 -434 380 -9 615 29 830 131 220 105 374 269
500 531 155 324 393 1215 444 1665 42 361 16 767 -70 1105 -79 312 -282 779
-444 1025 -103 157 -282 334 -454 449 -134 91 -376 189 -508 208 -24 3 -43 11
-43 17 0 6 48 106 107 221 151 298 174 367 193 564 27 286 -59 603 -237 869
-68 103 -228 272 -330 348 -135 102 -311 187 -468 228 -154 40 -578 58 -820
36 -471 -44 -858 -194 -1193 -465 -233 -187 -378 -384 -569 -770 -46 -93 -87
-173 -91 -176 -16 -14 -416 39 -647 86 -236 48 -552 153 -637 212 -121 83
-185 309 -124 438 33 70 66 97 187 154 118 56 177 79 394 156 405 144 549 206
694 302 100 67 222 187 268 264 106 178 121 400 42 599 -59 146 -189 307 -324
400 -65 45 -218 116 -290 134 -33 8 -98 20 -145 26 -88 11 -451 21 -530 14z
m457 -205 c219 -24 380 -96 514 -229 119 -117 160 -219 160 -389 0 -129 -23
-206 -93 -308 -72 -106 -326 -240 -723 -382 -403 -144 -482 -175 -600 -231
-141 -67 -213 -121 -251 -187 -23 -39 -29 -61 -32 -132 -13 -281 125 -562 323
-656 102 -48 639 -183 974 -245 224 -42 528 -86 536 -78 1 1 15 47 29 101 80
303 314 676 581 925 226 211 581 358 1030 426 400 61 754 28 1022 -95 335
-154 580 -447 675 -812 32 -121 32 -385 0 -507 -66 -253 -240 -458 -497 -585
-127 -63 -268 -103 -395 -111 -213 -15 -1321 55 -1685 106 -38 6 -142 19 -230
30 -88 12 -170 23 -183 26 -22 4 -23 3 -17 -48 30 -260 80 -524 127 -678 26
-84 108 -280 165 -394 83 -166 152 -266 253 -367 91 -91 103 -100 240 -168
157 -78 297 -126 467 -162 143 -31 424 -34 548 -6 250 55 326 151 595 744 146
324 265 529 357 613 157 146 415 126 643 -48 179 -137 418 -422 557 -665 102
-179 155 -328 193 -542 48 -274 55 -390 54 -925 -2 -609 -11 -717 -85 -1005
-73 -281 -290 -873 -371 -1010 -163 -275 -454 -354 -1255 -342 -438 6 -474 16
-570 159 -57 86 -94 190 -124 350 -65 349 -78 407 -113 489 -63 147 -163 250
-279 284 -58 17 -200 20 -266 4 -77 -17 -184 -74 -242 -127 -91 -83 -131 -178
-259 -607 -77 -259 -173 -418 -279 -464 -79 -33 -165 -41 -501 -41 -560 0
-972 36 -1075 93 -51 29 -80 88 -99 202 -22 134 -44 595 -56 1175 -13 629 -24
781 -67 940 -69 259 -200 503 -410 765 -47 59 -251 274 -452 479 -470 476
-648 682 -841 971 -205 307 -317 533 -414 835 -95 293 -132 554 -123 865 14
479 104 817 296 1105 235 354 747 646 1391 794 145 33 317 61 420 69 108 8
349 6 437 -4z m1898 -3619 c263 -28 680 -48 1135 -55 212 -3 411 -10 443 -16
83 -14 187 -48 187 -60 0 -6 -36 -56 -80 -112 -99 -126 -131 -186 -215 -407
-114 -300 -180 -419 -295 -535 -119 -121 -247 -171 -435 -169 -222 2 -435 67
-630 195 -108 69 -285 249 -360 363 -135 207 -220 464 -226 676 -3 119 -3 117
39 128 61 16 235 13 437 -8z"/>
<path d="M2855 8413 c-367 -45 -659 -122 -886 -234 -178 -87 -277 -156 -401
-277 -249 -242 -377 -530 -397 -892 -28 -522 137 -1100 449 -1568 151 -227
327 -428 734 -841 624 -632 659 -678 942 -1243 114 -229 145 -299 153 -350 6
-35 15 -322 21 -638 9 -523 30 -1383 34 -1387 0 -1 244 -3 541 -4 l540 -3 32
76 c18 41 47 127 64 189 101 370 121 428 180 531 98 169 293 316 520 392 117
39 197 49 353 44 125 -4 151 -8 235 -37 293 -99 465 -279 569 -594 42 -125 69
-265 100 -513 l17 -139 390 1 c541 2 641 17 709 107 119 158 329 781 420 1242
130 657 54 1355 -200 1834 -125 236 -320 476 -467 575 -55 37 -58 38 -72 20
-25 -33 -151 -285 -210 -419 -188 -428 -307 -629 -465 -785 -141 -140 -275
-211 -470 -253 -75 -15 -134 -20 -280 -20 -203 -1 -352 16 -530 60 -734 179
-1234 740 -1399 1568 -22 110 -57 409 -67 578 -8 124 -3 119 -114 137 -598 98
-1310 287 -1550 411 -327 170 -536 570 -517 988 9 187 52 325 144 462 111 167
245 241 748 415 569 196 718 260 789 333 38 39 39 41 28 79 -6 21 -22 48 -34
60 -27 25 -182 77 -271 92 -58 9 -315 12 -382 3z m-125 -257 c0 -12 -190 -123
-360 -209 -255 -130 -344 -190 -460 -306 -82 -82 -103 -110 -143 -191 -87
-178 -112 -323 -104 -603 4 -146 10 -211 25 -272 81 -321 244 -555 512 -733
197 -132 367 -198 748 -293 136 -34 250 -64 255 -68 4 -4 -22 -29 -58 -55
-179 -132 -291 -275 -339 -435 -20 -67 -8 -169 35 -284 58 -160 90 -193 225
-227 113 -29 342 -47 400 -32 68 18 137 67 255 180 l106 101 76 -192 c122
-311 193 -448 325 -631 163 -225 303 -364 512 -508 261 -179 561 -298 915
-363 138 -26 465 -32 585 -11 307 54 580 217 794 475 81 99 129 170 206 311
34 63 87 160 118 215 73 134 181 295 197 295 21 0 118 -114 169 -200 86 -142
223 -482 262 -648 43 -184 48 -235 48 -492 1 -265 -9 -369 -55 -610 -49 -256
-160 -658 -240 -869 -74 -197 -158 -305 -263 -337 -63 -19 -262 -43 -371 -45
-169 -4 -218 55 -333 392 -33 96 -78 213 -101 262 -90 187 -221 348 -379 465
-160 119 -252 148 -492 158 -599 26 -977 -192 -1187 -686 -22 -52 -67 -178
-99 -280 -32 -102 -58 -186 -58 -187 -1 -2 -646 -33 -693 -33 l-43 0 0 393 c0
541 -23 942 -71 1237 -86 528 -291 952 -678 1405 -91 107 -141 160 -491 525
-459 478 -558 594 -735 865 -147 222 -220 384 -279 616 -84 327 -86 830 -6
1094 55 177 178 365 310 472 193 155 517 287 830 336 35 6 130 8 130 3z m665
-2945 c150 -74 234 -226 206 -376 -22 -120 -79 -179 -207 -215 -127 -37 -210
-19 -298 61 -66 60 -121 162 -119 218 5 110 123 295 217 337 46 21 128 11 201
-25z"/>
<path d="M5780 7059 c-344 -44 -638 -179 -842 -386 -97 -98 -150 -165 -209
-265 -82 -140 -228 -453 -216 -464 18 -18 394 -69 622 -84 452 -30 1531 -37
1635 -11 102 27 188 112 241 242 33 77 33 260 1 372 -79 278 -289 482 -569
553 -193 49 -476 67 -663 43z m475 -236 c91 -17 203 -55 255 -86 217 -127 329
-338 275 -523 -23 -80 -103 -161 -187 -187 -185 -58 -981 -39 -1411 33 -106
18 -280 67 -316 90 -33 19 84 233 187 341 84 89 164 147 276 199 306 140 639
189 921 133z"/>
</g>
</svg>
