<?xml version="1.0" encoding="UTF-8"?>
<svg version="1.1" xmlns="http://www.w3.org/2000/svg" width="196" height="196">
<path d="M0 0 C64.68 0 129.36 0 196 0 C196 64.68 196 129.36 196 196 C131.32 196 66.64 196 0 196 C0 131.32 0 66.64 0 0 Z " fill="#F7F7F7" transform="translate(0,0)"/>
<path d="M0 0 C64.68 0 129.36 0 196 0 C196 64.68 196 129.36 196 196 C131.32 196 66.64 196 0 196 C0 131.32 0 66.64 0 0 Z M22.125 20.54296875 C13.01478673 31.07665284 11.21538927 42.61361816 11.84765625 56.04296875 C13.27944251 74.43591537 23.78961737 89.96105569 36 103 C37.17236795 104.34923381 38.33941814 105.70311477 39.5 107.0625 C42.04430141 110.00822252 44.74563692 112.68980998 47.5625 115.375 C60.3407793 128.06605555 60.32159856 141.93856457 60.45629883 158.86181641 C60.0135561 172.57975003 60.0135561 172.57975003 65.42602539 184.65161133 C71.21374203 189.60981809 80.55158152 188.33139268 87.625 188.3125 C88.83929688 188.32861328 90.05359375 188.34472656 91.3046875 188.36132812 C92.47515625 188.36197266 93.645625 188.36261719 94.8515625 188.36328125 C96.44218506 188.36775269 96.44218506 188.36775269 98.06494141 188.37231445 C102.03305608 187.86895604 104.78131749 186.40487012 107.40625 183.37890625 C110.46298707 178.30253933 112.69764482 173.0834248 114.7890625 167.5390625 C116 165 116 165 119 163 C121.6875 163.375 121.6875 163.375 124 164 C124.15033691 164.54938232 124.30067383 165.09876465 124.45556641 165.66479492 C125.15695185 168.17902054 125.89056249 170.68273924 126.625 173.1875 C126.97884766 174.48397461 126.97884766 174.48397461 127.33984375 175.80664062 C129.09883103 181.69248267 130.82517799 184.61123861 136 188 C140.75971005 189.58657002 145.57649758 189.30919793 150.5625 189.375 C152.13354492 189.43107422 152.13354492 189.43107422 153.73632812 189.48828125 C161.1462771 189.57117689 167.00360813 188.5715667 173 184 C178.15602159 178.43097091 180.5378826 171.63485754 182.75 164.5 C183.18505859 163.17162109 183.18505859 163.17162109 183.62890625 161.81640625 C189.92081608 142.25115239 190.82092487 121.67443651 181.8125 102.8125 C177.01604837 93.70225855 171.03978528 85.58692508 161 82 C158.319882 81.83759682 158.319882 81.83759682 156 82 C156.433125 81.30777344 156.86625 80.61554688 157.3125 79.90234375 C162.05410434 71.57160835 163.38077931 64.51900887 162 55 C159.5539833 46.95389242 154.61229939 40.8174356 147.48046875 36.4609375 C136.42330977 31.04580355 123.36992486 31.5637187 111.71484375 34.953125 C107.08466343 36.73857583 103.05764383 39.16620565 99 42 C97.948125 42.721875 96.89625 43.44375 95.8125 44.1875 C90.74556095 49.25443905 87.09291481 55.55642748 84 62 C75.00627024 61.73391332 66.15612022 61.13716243 58 57 C55.51108193 54.35619218 55.02586769 53.44837334 54.8125 49.75 C54.9053125 48.38875 54.9053125 48.38875 55 47 C60.46768023 44.09953758 65.9410439 41.58501305 71.75 39.4375 C78.76154155 36.79272346 83.61987645 34.32684513 88 28 C89.41114498 23.76656507 89.91699236 20.11856856 88.09375 15.90625 C84.21959004 9.25064186 79.37834951 6.10681912 72 4 C53.64839007 2.25114608 35.50038981 7.62955786 22.125 20.54296875 Z " fill="#FDFDFD" transform="translate(0,0)"/>
<path d="M0 0 C3.54032931 3.54032931 4.9671661 6.65188359 5.5 11.625 C4.93626403 16.8865357 3.32057205 19.86811656 -0.3125 23.6875 C-4.91644938 27.24561397 -10.50302584 29.03554066 -15.875 31.125 C-18.10684634 32.03512291 -20.33613505 32.95154946 -22.5625 33.875 C-23.55636719 34.28234375 -24.55023438 34.6896875 -25.57421875 35.109375 C-27.79423591 35.92379158 -27.79423591 35.92379158 -28.875 37.125 C-29.3953173 40.94066019 -29.22784388 42.61925711 -27 45.8125 C-19.04529572 51.69898117 -9.45700858 51.72459907 0.125 52.125 C0.48851563 51.41214844 0.85203125 50.69929688 1.2265625 49.96484375 C7.48982217 38.03253109 14.59195582 30.32904434 27.4375 25.25 C39.05849458 21.70461182 52.54300068 21.16820348 63.60546875 26.5859375 C70.73729939 30.9424356 75.6789833 37.07889242 78.125 45.125 C79.64417606 55.59810771 77.69344624 63.22542968 72.125 72.125 C73.094375 72.16625 74.06375 72.2075 75.0625 72.25 C82.11586361 73.27802061 88.31925286 78.42687059 92.65234375 83.89453125 C103.4520191 100.25159922 106.74487629 118.4659712 103.70166016 137.81689453 C102.56029005 143.37749706 100.94097403 148.75168966 99.125 154.125 C98.51398438 155.99865234 98.51398438 155.99865234 97.890625 157.91015625 C95.43243684 164.86172082 92.72003706 172.16833007 86.26733398 176.3203125 C79.79499352 179.40216272 74.03382386 179.69854579 66.9375 179.5625 C65.88369141 179.56958984 64.82988281 179.57667969 63.74414062 179.58398438 C57.36503934 179.53172961 52.60633641 179.09727307 47.57226562 174.79931641 C45.85815141 172.81628751 45.27558132 171.17914702 44.51953125 168.67578125 C44.25849609 167.82822266 43.99746094 166.98066406 43.72851562 166.10742188 C43.46748047 165.22634766 43.20644531 164.34527344 42.9375 163.4375 C42.66486328 162.54482422 42.39222656 161.65214844 42.11132812 160.73242188 C41.44072347 158.532368 40.77899108 156.33003834 40.125 154.125 C37.83205512 153.26525199 37.83205512 153.26525199 35.125 153.125 C30.88588906 156.03543437 29.45296978 160.51751453 27.625 165.125 C24.12298539 173.95199572 24.12298539 173.95199572 20.125 177.125 C14.91263928 178.86245357 9.39332822 178.35206431 3.9375 178.375 C2.73029297 178.395625 1.52308594 178.41625 0.27929688 178.4375 C-7.03827987 178.4695069 -13.26264329 178.34361819 -19.45776367 174.02050781 C-23.21905565 168.98990128 -23.16485359 162.11459106 -23.18359375 156.07421875 C-23.20875834 154.55533478 -23.23415629 153.03645466 -23.25976562 151.51757812 C-23.2883795 149.16806083 -23.31245099 146.81861025 -23.33129883 144.46899414 C-23.51721826 125.00057409 -27.7344925 113.93399235 -41.69726562 100.20996094 C-42.30505859 99.61473633 -42.91285156 99.01951172 -43.5390625 98.40625 C-58.71189232 83.54375445 -71.69122333 64.31975748 -72.11645508 42.41625977 C-72.16888459 29.89159903 -69.47328181 18.96153536 -60.8125 9.5 C-45.11879428 -5.14066486 -18.67567151 -12.17978577 0 0 Z M-61.25 16.88671875 C-68.36272583 26.68381466 -67.86764781 39.54483611 -66.875 51.125 C-65.21485391 61.19188841 -60.94727296 69.96897863 -54.875 78.125 C-54.31425781 78.90617187 -53.75351562 79.68734375 -53.17578125 80.4921875 C-49.02036123 85.99068253 -44.28520739 90.75221837 -39.375 95.5625 C-27.72386405 107.02167085 -19.42544263 117.9272259 -19.1171875 134.83984375 C-19.08319855 135.81740128 -19.04920959 136.7949588 -19.01419067 137.80213928 C-18.90895762 140.88867191 -18.82774479 143.97516279 -18.75 147.0625 C-18.66198349 150.1745809 -18.56866 153.28626265 -18.46438599 156.39784241 C-18.40071167 158.32513492 -18.34685692 160.25278271 -18.30392456 162.1806488 C-18.27694489 163.04907913 -18.24996521 163.91750946 -18.22216797 164.81225586 C-18.20314423 165.57485214 -18.18412048 166.33744843 -18.16452026 167.12315369 C-17.97598143 169.43924295 -17.97598143 169.43924295 -15.875 172.125 C-10.66159329 173.86280224 -5.08229254 173.42951251 0.3762207 173.47509766 C1.83211221 173.49168068 3.28792153 173.51900242 4.7434082 173.55712891 C6.84889665 173.61194072 8.95248781 173.63376978 11.05859375 173.6484375 C12.31728271 173.66825684 13.57597168 173.68807617 14.87280273 173.70849609 C18.26859971 173.41361577 18.26859971 173.41361577 20.46679688 170.83496094 C21.82636331 168.61305467 22.89374296 166.69384946 23.72265625 164.2421875 C24.08907227 163.20384766 24.08907227 163.20384766 24.46289062 162.14453125 C24.82157227 161.08298828 24.82157227 161.08298828 25.1875 160 C28.42206999 150.476465 28.42206999 150.476465 33.125 148.125 C37.25321969 147.65765438 39.32888552 147.51912901 42.69140625 150.078125 C45.79474483 153.96352483 46.66052849 157.47013557 47.75 162.25 C48.12859257 163.85901844 48.51628172 165.46593002 48.9140625 167.0703125 C49.15697021 168.13016357 49.15697021 168.13016357 49.40478516 169.21142578 C50.29864986 171.58637886 51.05093505 172.64571621 53.125 174.125 C55.81447341 174.58800964 55.81447341 174.58800964 58.859375 174.5234375 C59.99117188 174.52730469 61.12296875 174.53117188 62.2890625 174.53515625 C63.47242188 174.52355469 64.65578125 174.51195312 65.875 174.5 C67.62683594 174.51740234 67.62683594 174.51740234 69.4140625 174.53515625 C76.97517763 174.50943817 82.75198966 174.4510815 88.37109375 168.91015625 C90.45273387 165.60456737 91.87591988 162.22149036 93.1875 158.5625 C93.55198242 157.6024707 93.55198242 157.6024707 93.92382812 156.62304688 C97.91240772 145.77876549 99.61357985 135.6849048 99.5 124.125 C99.51740234 122.35382813 99.51740234 122.35382813 99.53515625 120.546875 C99.48418444 105.11940766 95.3420888 93.15012929 84.84375 81.75390625 C81.37138549 78.4630517 78.27302573 77.33000459 73.625 76.5 C68.64957903 77.38846803 66.96341316 80.10777165 64.125 84.125 C62.58192513 86.92505568 61.30772871 89.8072048 60.0625 92.75 C57.55960773 98.6537294 55.19591323 104.08954338 49.125 107.125 C39.29278555 108.15224629 30.1631107 106.8886734 22.21875 100.62109375 C14.11598047 92.04290662 11.98497258 80.33020064 10.125 69.125 C11.23230469 69.3415625 12.33960937 69.558125 13.48046875 69.78125 C24.11296954 71.69841854 34.5703626 72.47507389 45.375 72.5625 C47.22967896 72.59537109 47.22967896 72.59537109 49.12182617 72.62890625 C57.24257426 72.61119107 62.96925666 71.72086141 69.18359375 66.34375 C69.63863281 65.7765625 70.09367188 65.209375 70.5625 64.625 C71.03558594 64.0578125 71.50867188 63.490625 71.99609375 62.90625 C75.09517081 58.01635678 74.78044113 51.68494892 74.125 46.125 C71.41001999 38.30877953 66.0192206 33.42974281 59.0625 29.3125 C48.15391114 24.90264493 35.18777824 26.9480247 24.5078125 31.15625 C14.69137388 36.18335351 8.58022412 44.19709573 4.125 54.125 C3.75006979 55.44723909 3.39877058 56.77817464 3.125 58.125 C-4.14530225 57.17886478 -11.26539744 55.90075337 -18.375 54.125 C-19.04466797 53.9590332 -19.71433594 53.79306641 -20.40429688 53.62207031 C-29.91473645 51.18460116 -29.91473645 51.18460116 -32.6875 48.125 C-34.36245177 43.89354289 -35.42693841 39.50050918 -33.875 35.125 C-28.96113831 30.88937845 -22.77423839 28.72127008 -16.75 26.5625 C-10.34224 24.25720404 -4.7772967 22.0272967 0.125 17.125 C0.81187209 13.10499072 0.9862171 8.94353567 -0.78515625 5.203125 C-3.64662181 1.48598003 -6.45664518 0.2640672 -10.875 -0.875 C-29.79171913 -3.0798203 -48.71847666 1.85394377 -61.25 16.88671875 Z " fill="#101010" transform="translate(83.875,9.875)"/>
<path d="M0 0 C-2.43646555 2.77056283 -5.02139142 4.12948181 -8.3125 5.75 C-14.27712799 8.91796798 -18.81909958 12.45729873 -21 19 C-21.7761749 28.14777561 -21.866148 36.45175174 -16 44 C-13.52502363 46.38858089 -10.94592988 48.23597013 -8 50 C-7.0925 50.556875 -6.185 51.11375 -5.25 51.6875 C-0.31225743 53.68158835 4.81632363 54.81731656 10 56 C10 56.66 10 57.32 10 58 C8.34614767 59.34919532 6.678298 60.68133728 5 62 C2.73664663 65.39503005 2.81432363 66.17007563 3.25 70.0625 C3.33765625 70.94035156 3.4253125 71.81820312 3.515625 72.72265625 C3.8236796 75.18669932 3.8236796 75.18669932 6 77 C8.75806608 77.39668485 8.75806608 77.39668485 11.875 77.375 C12.92429688 77.40335937 13.97359375 77.43171875 15.0546875 77.4609375 C18.6455567 76.89897123 19.64846362 75.66788656 22 73 C22.66 73 23.32 73 24 73 C24.47308594 74.03898437 24.94617188 75.07796875 25.43359375 76.1484375 C32.32108404 90.86519138 39.71628061 99.8725863 55 106 C63.17537537 108.70701798 73.02914493 109.86211609 81.109375 106.14453125 C88.8082115 101.48387196 93.27520043 95.59242477 97.34960938 87.7487793 C99.01068961 84.56226201 99.93680059 83.04213294 103 81 C104.77677918 83.60691372 106.41210421 86.27403725 108 89 C108.40347656 89.67804688 108.80695313 90.35609375 109.22265625 91.0546875 C115.20389383 103.10291518 112.81472067 119.64679818 109 132 C108.68675781 133.09441406 108.37351563 134.18882812 108.05078125 135.31640625 C105.11821077 144.94868321 105.11821077 144.94868321 101 148 C97.984375 148.390625 97.984375 148.390625 94.75 148.25 C93.67234375 148.21390625 92.5946875 148.1778125 91.484375 148.140625 C90.66453125 148.09421875 89.8446875 148.0478125 89 148 C88.75765625 147.443125 88.5153125 146.88625 88.265625 146.3125 C82.78432953 132.50410114 82.78432953 132.50410114 72 123 C64.54191161 120.76881456 57.29857565 121.49820119 50.25390625 124.6953125 C42.11719368 129.40529863 39.97932231 137.50016869 37 146 C31.72 146.33 26.44 146.66 21 147 C20.97421875 144.875625 20.9484375 142.75125 20.921875 140.5625 C20.45925932 111.66613178 16.10839056 92.59928602 -5.19921875 71.859375 C-5.83472656 71.24578125 -6.47023438 70.6321875 -7.125 70 C-17.77354689 59.48511688 -27.17043827 46.82661415 -27.37109375 31.3984375 C-27.37238281 30.48320313 -27.37367187 29.56796875 -27.375 28.625 C-27.39949219 27.7175 -27.42398437 26.81 -27.44921875 25.875 C-27.47995432 18.76483845 -26.08486602 13.36775767 -21.2109375 8.046875 C-14.7978279 3.51676354 -8.04372589 -0.37146869 0 0 Z " fill="#FAFAFA" transform="translate(58,23)"/>
<path d="M0 0 C0.03125 2.27734375 0.03125 2.27734375 -1 5 C-3.65788497 6.64280931 -6.55131375 7.56180802 -9.5 8.5625 C-11.15013373 9.16428491 -12.79987845 9.76713764 -14.44921875 10.37109375 C-15.23989746 10.6532373 -16.03057617 10.93538086 -16.84521484 11.22607422 C-27.12316981 14.85222404 -27.12316981 14.85222404 -34 23 C-34.65485493 30.65244761 -35.26430631 37.92071985 -30.58203125 44.38671875 C-20.37011279 54.80035412 -2.80235643 56.31454152 11 59 C11.08636719 60.16015625 11.17273438 61.3203125 11.26171875 62.515625 C12.5085831 77.13452134 15.78839941 88.92796911 26.546875 99.5234375 C34.61877503 106.11682118 45.73638778 107.72625913 55.83203125 107.37890625 C62.9502084 106.52753364 66.98057535 103.47548409 71.47949219 98.09741211 C74.18401972 94.36674479 76.00045853 90.25471434 77.875 86.0625 C78.47828125 84.75055664 78.47828125 84.75055664 79.09375 83.41210938 C80.07280053 81.27917786 81.04119904 79.14209073 82 77 C87.09379532 78.12375615 89.04629696 80.80862705 92 85 C100.54102321 99.41443917 101.43921143 116.75584015 97.83203125 132.95703125 C93.37836307 150.04857201 93.37836307 150.04857201 88 156 C85.22386849 157.04477296 82.61784679 157.11869891 79.671875 157.09765625 C78.87265625 157.09443359 78.0734375 157.09121094 77.25 157.08789062 C76.425 157.07951172 75.6 157.07113281 74.75 157.0625 C73.90953125 157.05798828 73.0690625 157.05347656 72.203125 157.04882812 C70.13538599 157.03707961 68.06768376 157.01914522 66 157 C65.84144531 156.01 65.68289062 155.02 65.51953125 154 C64.03094704 145.33396075 62.67003107 137.73602485 55.5 132 C49.33765416 130.23932976 42.55869719 129.60746632 36.484375 131.984375 C30.05525055 135.84184967 27.78042236 139.94839537 25.875 147.1875 C24.08835905 153.91164095 24.08835905 153.91164095 23 155 C21.21928754 155.08726223 19.4351686 155.10699041 17.65234375 155.09765625 C16.57275391 155.09443359 15.49316406 155.09121094 14.38085938 155.08789062 C13.24455078 155.07951172 12.10824219 155.07113281 10.9375 155.0625 C9.79732422 155.05798828 8.65714844 155.05347656 7.48242188 155.04882812 C4.65489649 155.03699747 1.8274736 155.0205141 -1 155 C-0.98316162 153.75613525 -0.96632324 152.51227051 -0.94897461 151.23071289 C-0.89761495 146.53166254 -0.90694452 141.83421561 -0.93286133 137.13500977 C-0.93590789 135.11706641 -0.92337654 133.09902771 -0.89379883 131.08129883 C-0.63500161 112.15145857 -5.28901047 99.1256149 -18.49098206 85.45118713 C-19.97853486 83.95086751 -21.48429059 82.47184644 -23 81 C-36.3671232 67.9593346 -48.93032869 53.80819281 -49.43164062 34.13574219 C-49.45469235 24.50396495 -48.92605864 17.39870819 -42.16796875 9.9921875 C-31.56253167 -0.00662695 -14.13803561 -4.71267854 0 0 Z M-39.59765625 13.1796875 C-44.17951945 19.12717567 -44.52125718 24.99948528 -44.4375 32.25 C-44.42775146 33.18513428 -44.41800293 34.12026855 -44.40795898 35.08374023 C-43.91977874 54.08305352 -30.96494539 67.47127305 -17.83984375 80.07421875 C-16.86724609 80.99654297 -16.86724609 80.99654297 -15.875 81.9375 C-0.39544854 97.25779682 3.17764255 114.6411396 3.625 135.625 C3.66327043 137.12111422 3.70232708 138.61720855 3.7421875 140.11328125 C3.83863376 143.74207191 3.91896987 147.37070307 4 151 C9.28 150.67 14.56 150.34 20 150 C20.70125 147.999375 21.4025 145.99875 22.125 143.9375 C25.18036398 136.10759789 27.94734628 131.10361045 35.75 127.5625 C42.3632699 125.25531411 48.13690638 125.10821674 54.8125 127.1875 C63.43048508 132.08792289 67.10097936 139.65269205 70.16796875 148.70703125 C70.7929287 150.93409712 70.7929287 150.93409712 72 152 C74.65004411 152.35566714 74.65004411 152.35566714 77.75 152.4375 C78.79671875 152.49808594 79.8434375 152.55867187 80.921875 152.62109375 C84.43653404 151.91191762 85.82178727 150.72469201 87.93261719 147.85180664 C89.82193193 144.57402706 90.79629737 141.14199192 91.75 137.5 C91.95753906 136.76652344 92.16507813 136.03304687 92.37890625 135.27734375 C96.09463382 121.87675206 97.72809537 106.13792116 91.37890625 93.3671875 C89.69047814 90.46863953 88.01371127 87.68494835 86 85 C82.36411435 88.10119659 80.382912 91.02284459 78.25 95.3125 C74.5969794 102.25323913 69.47542984 107.70739906 62.25 111 C51.1695922 114.36369523 40.47099705 111.51576332 30.34375 106.75 C17.94998687 100.01758546 12.19581593 89.53010273 7 77 C4.53199953 78.15173355 2.95216435 79.04783565 1 81 C-1.75 81.265625 -1.75 81.265625 -5 81.25 C-6.0725 81.25515625 -7.145 81.2603125 -8.25 81.265625 C-11 81 -11 81 -13 79 C-14.07807277 75.03040753 -14.91784371 70.82476071 -13.015625 67.04296875 C-11.24117278 64.89796915 -9.49903047 63.24951524 -7 62 C-7 61.34 -7 60.68 -7 60 C-8.34191406 59.67128906 -8.34191406 59.67128906 -9.7109375 59.3359375 C-21.32179336 56.29087296 -30.32174655 52.68570209 -36.75 42.125 C-39.42321568 35.47133681 -39.33791006 26.28218286 -36.6640625 19.72265625 C-32.15990375 12.35317586 -24.49132481 8.82016925 -17 5 C-17 4.67 -17 4.34 -17 4 C-25.30011015 3.48314332 -33.40407286 7.9159296 -39.59765625 13.1796875 Z " fill="#0E0E0E" transform="translate(75,19)"/>
<path d="M0 0 C6.37221079 0.11743023 12.74424528 0.24226447 19.11621094 0.37231445 C21.28512256 0.41569919 23.45406913 0.45737161 25.62304688 0.49731445 C28.73578435 0.55493139 31.84834535 0.61865038 34.9609375 0.68359375 C36.42193375 0.70866249 36.42193375 0.70866249 37.91244507 0.73423767 C38.81322784 0.75418289 39.71401062 0.77412811 40.64208984 0.79467773 C41.43706879 0.81022202 42.23204773 0.8257663 43.05111694 0.84178162 C45 1 45 1 47 2 C45.60749352 5.71335062 43.94114345 9.21929091 42.1328125 12.7421875 C41.32313682 14.35595489 40.55107236 15.98881447 39.8046875 17.6328125 C38.13645391 21.23158056 36.69416672 24.30583328 33.875 27.125 C27.9448828 28.92981828 22.14914988 28.64474496 16.25 26.875 C8.64956463 22.49013344 3.8123139 17.49504737 1 9 C0.78468534 7.44424435 0.60033419 5.8840064 0.44091797 4.3215332 C0.35663544 3.51198685 0.27235291 2.70244049 0.18551636 1.86836243 C0.12429596 1.25180283 0.06307556 0.63524323 0 0 Z " fill="#FBFBFB" transform="translate(100,85)"/>
<path d="M0 0 C2.77031987 2.69741672 3.86218865 4.24969377 4.5625 8.0625 C4 11 4 11 1.98828125 13.16015625 C-1.8421004 15.51846966 -5.02001336 15.52371816 -9.375 15.375 C-10.16068359 15.36138428 -10.94636719 15.34776855 -11.75585938 15.33374023 C-30.31585534 14.84207233 -30.31585534 14.84207233 -36 12 C-35.4916752 7.55215797 -34.16430777 5.16430777 -31 2 C-22.32120077 -3.42878864 -8.84572856 -6.41315321 0 0 Z " fill="#F7F7F7" transform="translate(140,54)"/>
<path d="M0 0 C3.82950323 2.52047983 6.38429767 4.84429927 7.83984375 9.2109375 C8.11328125 11.296875 8.11328125 11.296875 8.21484375 13.5859375 C8.26382813 14.33617188 8.3128125 15.08640625 8.36328125 15.859375 C7.54263768 19.54614686 5.77792223 20.89322272 2.83984375 23.2109375 C-0.15463154 23.90684795 -3.05492181 23.84211577 -6.1171875 23.76953125 C-6.97898117 23.76719986 -7.84077484 23.76486847 -8.72868347 23.76246643 C-10.54847128 23.7527443 -12.36822949 23.73099234 -14.18774414 23.69799805 C-16.95310016 23.64878552 -19.71666827 23.63652539 -22.48242188 23.63085938 C-24.25652908 23.61676334 -26.03062101 23.60055534 -27.8046875 23.58203125 C-29.03165092 23.5739872 -29.03165092 23.5739872 -30.28340149 23.56578064 C-35.53246457 23.45875322 -40.10936158 22.65551749 -45.16015625 21.2109375 C-43.06955063 13.05757557 -38.13385184 5.90477107 -31.16015625 1.2109375 C-21.6297135 -4.15434879 -9.84677973 -5.17093461 0 0 Z M-36.03515625 11.2109375 C-37.48699708 13.4095387 -37.48699708 13.4095387 -37.16015625 17.2109375 C-28.81882168 20.59255962 -19.65896239 20.33550897 -10.78515625 20.5234375 C-10.01204102 20.55324707 -9.23892578 20.58305664 -8.44238281 20.61376953 C-4.50992588 20.65400146 -2.59732555 20.47904524 0.83984375 18.37109375 C3.06875726 16.33056381 3.06875726 16.33056381 3.46484375 13.3359375 C2.62219852 9.12271133 0.88903496 7.1923689 -2.16015625 4.2109375 C-13.16302496 -1.26266498 -27.82427927 2.45266872 -36.03515625 11.2109375 Z " fill="#0C0C0C" transform="translate(141.16015625,48.7890625)"/>
<path d="M0 0 C3.125 0.375 3.125 0.375 5.5 2 C7.59964453 5.06871124 7.74560815 6.72892711 7.125 10.375 C5.5625 12.3125 5.5625 12.3125 3.125 13.375 C-0.5 13.25 -0.5 13.25 -3.875 12.375 C-5.875 9.375 -5.875 9.375 -5.625 5.8125 C-4.71499279 1.64163362 -4.28652599 0.55911209 0 0 Z " fill="#F4F4F4" transform="translate(69.875,84.625)"/>
</svg>
